# xmcd CD database file
#
# Track frame offsets:
#	150
#	9758
#	17401
#	26910
#	36286
#	45148
#	53250
#	63621
#	72741
#	85234
#	90775
#
# Disc length: 1558 seconds
#
# Revision: 0
# Processed by: cddbd v1.5.2PL0 Copyright (c) Steve Scherf et al.
# Submitted via: CDex 1.51
#
DISCID=7606140b
DTITLE=Sirhan Sirhan - Blood
DYEAR=2008
DGENRE=Salsa
TTITLE0=Rise
TTITLE1=All Aboard
TTITLE2=Remmove My Eyes
TTITLE3=Chop Chop
TTITLE4=Burn It Down
TTITLE5=Decapitate - Disintegrate
TTITLE6=Surgery
TTITLE7=Time to Bleed
TTITLE8=The Maggot Sings
TTITLE9=Blood
TTITLE10=Don't Shoot
EXTD=YEAR: 2008
EXTT0=
EXTT1=
EXTT2=
EXTT3=
EXTT4=
EXTT5=
EXTT6=
EXTT7=
EXTT8=
EXTT9=
EXTT10=
PLAYORDER=
